<?xml version="1.0" encoding="UTF-8"?><svg id="a" xmlns="http://www.w3.org/2000/svg" viewBox="0 0 62.7 62.7"><defs><style>.b{fill:#fff;}</style></defs><circle cx="31.35" cy="31.35" r="31.35"/><g><path class="b" d="M14.5,20.82h.48c2.56,0,5.11,0,7.67,0,.69,0,.86-.17,.86-.86,0-2.58,0-5.16,0-7.74v-.46h.41c6.17,0,12.33,0,18.5,0,.64,0,.86,.21,.86,.85,0,12.5,0,25,0,37.5,0,.65-.2,.85-.84,.85-9.03,0-18.06,0-27.09,0-.62,0-.84-.21-.84-.82,0-9.65,0-19.29,0-28.94v-.36Zm14.24,7.18c-3.12,0-6.25,0-9.37,0-.13,0-.26,0-.39,0-.32,.02-.5,.2-.52,.52-.03,.32,.07,.57,.42,.64,.16,.03,.33,.04,.49,.04,6.25,0,12.49,0,18.74,0,.16,0,.33,0,.49-.05,.31-.07,.44-.3,.43-.61,0-.38-.24-.56-.71-.56-3.19,0-6.39,0-9.58,0Zm3.67,6.7c.71,0,1.42,0,2.13,0,1.23,0,2.46,0,3.69,0,.39,0,.61-.21,.63-.57,.01-.35-.2-.59-.58-.63-.11-.01-.21,0-.32,0-3.7,0-7.41,0-11.11,0-.12,0-.24,0-.35,.02-.38,.06-.55,.3-.51,.68,.03,.35,.24,.51,.67,.51,1.92,0,3.83,0,5.75,0Zm-.01-15.35c1.92,0,3.83,0,5.75,0,.33,0,.59-.09,.69-.43,.14-.45-.17-.78-.72-.79-3.57,0-7.15,0-10.72,0-.27,0-.54-.01-.82,0-.44,.02-.69,.36-.59,.78,.09,.35,.36,.43,.68,.43,1.9,0,3.81,0,5.71,0Zm-11.43,12.69c-.48,0-.97,0-1.45,0-.44,0-.63,.19-.63,.63,0,.96,0,1.91,0,2.87,0,.43,.21,.63,.64,.64,.95,0,1.89,0,2.84,0,.43,0,.66-.22,.66-.66,.01-.95,.01-1.89,0-2.84,0-.44-.22-.63-.67-.64-.46,0-.92,0-1.38,0Zm-.03,9.69c.47,0,.95,0,1.42,0,.43,0,.65-.19,.66-.61,.01-.97,.01-1.94,0-2.91,0-.4-.24-.61-.63-.61-.96,0-1.92,0-2.87,0-.41,0-.62,.2-.63,.6-.01,.98-.01,1.96,0,2.94,0,.39,.2,.58,.6,.58,.48,0,.97,0,1.45,0Zm-.02-15.42c.48,0,.97,0,1.45,0,.42,0,.64-.2,.65-.63,.01-.96,.01-1.92,0-2.87,0-.42-.23-.63-.65-.63-.96,0-1.92,0-2.87,0-.41,0-.61,.2-.61,.61-.01,.97-.01,1.94,0,2.91,0,.41,.21,.6,.62,.61,.47,0,.95,0,1.42,0Zm-2.04,18.88c0,.47,0,.95,0,1.42,0,.43,.2,.64,.63,.65,.96,.01,1.91,.01,2.87,0,.4,0,.63-.22,.63-.62,.01-.97,.01-1.94,0-2.91,0-.41-.21-.61-.62-.61-.97-.01-1.94-.01-2.91,0-.42,0-.6,.2-.6,.62-.01,.48,0,.97,0,1.45Zm11.63-6.11c-1.3,0-2.6,0-3.9,0-.43,0-.65,.23-.63,.63,.02,.4,.25,.57,.78,.57,2.48,0,4.97,0,7.45,0,.13,0,.28,0,.38-.05,.14-.08,.3-.2,.36-.34,.18-.43-.09-.8-.58-.81-1.29,0-2.58,0-3.87,0Zm-.05,6.7c1.3,0,2.6,0,3.9,0,.41,0,.64-.23,.64-.6,0-.39-.27-.61-.75-.61-2.51,0-5.02,0-7.52,0-.11,0-.21,.01-.32,.03-.28,.06-.42,.24-.44,.53-.03,.41,.2,.65,.65,.65,1.28,0,2.55,0,3.83,0Zm3.94-22.12c-1.29,0-2.58,0-3.87,0-.49,0-.76,.34-.62,.79,.11,.37,.42,.4,.74,.4,2.5,0,4.99,0,7.49,0,.11,0,.23,.02,.31-.03,.15-.09,.33-.2,.4-.35,.19-.4-.13-.81-.63-.81-1.28,0-2.56,0-3.83,0Z"/><path class="b" d="M44.91,40.14v-.4c0-6.6,0-13.21,0-19.81,0-.36,.03-.69,.41-.87,.05-.03,.08-.15,.08-.24,0-.33,0-.66,0-.99,0-.51,.24-.75,.73-.75,.78,0,1.56,0,2.34,0,.48,0,.74,.27,.74,.75,0,.22,0,.45,0,.67,0,.28-.03,.53,.29,.71,.13,.08,.19,.37,.2,.57,.03,.51,0,1.01,0,1.57,.45,0,.87,0,1.29,0,.64,0,.84,.21,.85,.85,0,2.01,0,4.02,0,6.04,0,.09,.01,.19,0,.28-.06,.29-.21,.5-.53,.54-.33,.04-.55-.12-.66-.42-.05-.15-.06-.32-.06-.49,0-1.83,0-3.67,0-5.53h-.88v17.5h-4.81Z"/><path class="b" d="M22.29,12.39v7.2h-7.38l7.38-7.2Z"/><path class="b" d="M49.46,41.46c-.27,.64-.53,1.25-.79,1.87-.26,.63-.5,1.27-.8,1.89-.09,.18-.34,.37-.52,.38-.19,0-.48-.16-.56-.32-.54-1.14-1.03-2.3-1.53-3.46-.05-.11-.09-.21-.14-.35h4.34Z"/><path class="b" d="M21.78,34.95h-1.69v-1.69h1.69v1.69Z"/><path class="b" d="M21.78,40.51h-1.69v-1.68h1.69v1.68Z"/><path class="b" d="M21.78,25.09h-1.7v-1.68h1.7v1.68Z"/><path class="b" d="M20.09,46.02v-1.69h1.7v1.69h-1.7Z"/></g></svg>