<?xml version="1.0" encoding="UTF-8"?><svg id="a" xmlns="http://www.w3.org/2000/svg" viewBox="0 0 62.7 62.7"><defs><style>.b{fill:#fff;}.c{fill:#1d1d1b;}</style></defs><circle cx="31.35" cy="31.35" r="31.35"/><g><path class="b" d="M22.67,9.5c-.1,.09-.29,.22-.41,.39-.72,1.08-1.41,2.19-2.16,3.26-.16,.23-.47,.43-.75,.49-1.21,.26-2.43,.49-3.65,.67-.52,.08-.7,.33-.78,.81-.2,1.22-.42,2.44-.68,3.65-.06,.27-.27,.58-.51,.74-1.02,.71-2.05,1.4-3.11,2.03-.49,.29-.53,.6-.42,1.1,.28,1.21,.52,2.42,.74,3.64,.05,.26-.01,.59-.15,.81-.71,1.1-1.44,2.17-2.2,3.24-.22,.31-.22,.53,0,.84,.75,1.06,1.49,2.14,2.2,3.24,.14,.22,.2,.55,.15,.81-.22,1.24-.48,2.47-.76,3.7-.11,.48,0,.77,.44,1.03,1.04,.63,2.06,1.3,3.06,2,.26,.18,.5,.53,.57,.84,.27,1.21,.47,2.43,.68,3.65,.07,.42,.24,.66,.7,.73,1.22,.19,2.44,.42,3.65,.68,.31,.07,.67,.29,.85,.55,.7,.99,1.38,2.01,2,3.06,.28,.47,.58,.57,1.08,.46,1.21-.27,2.42-.53,3.64-.74,.29-.05,.67,.03,.92,.19,1.08,.69,2.14,1.42,3.18,2.16,.29,.21,.5,.21,.79,0,1.08-.76,2.18-1.51,3.29-2.24,.2-.13,.51-.19,.75-.15,1.28,.23,2.55,.5,3.82,.78,.41,.09,.65,0,.88-.37,.67-1.09,1.38-2.16,2.11-3.22,.15-.22,.43-.43,.69-.48,1.23-.26,2.47-.49,3.71-.68,.48-.07,.69-.28,.77-.75,.2-1.22,.42-2.44,.68-3.65,.06-.29,.28-.63,.52-.8,1.01-.71,2.05-1.4,3.11-2.04,.45-.27,.55-.55,.44-1.03-.28-1.23-.54-2.46-.76-3.7-.05-.25,.01-.59,.15-.81,.71-1.1,1.44-2.17,2.2-3.24,.22-.31,.22-.53,0-.84-.75-1.06-1.49-2.14-2.2-3.24-.14-.22-.2-.55-.15-.81,.22-1.24,.48-2.47,.76-3.7,.11-.48,0-.76-.44-1.03-1.06-.64-2.1-1.32-3.11-2.04-.24-.17-.46-.5-.52-.8-.26-1.21-.48-2.43-.68-3.65-.08-.46-.29-.68-.77-.75-1.24-.19-2.48-.42-3.71-.68-.25-.05-.54-.26-.69-.48-.73-1.06-1.44-2.13-2.11-3.22-.23-.38-.47-.46-.88-.37-1.27,.28-2.54,.55-3.82,.78-.24,.04-.55-.01-.75-.14-1.11-.72-2.21-1.47-3.29-2.24-.29-.21-.5-.2-.79,0-1.05,.74-2.1,1.47-3.18,2.16-.25,.16-.63,.24-.92,.19-1.34-.23-2.68-.52-4.19-.83Z"/><path class="b" d="M22.67,9.5c1.51,.3,2.84,.59,4.19,.83,.29,.05,.67-.03,.92-.19,1.08-.69,2.14-1.42,3.18-2.16,.29-.21,.5-.21,.79,0,1.08,.76,2.18,1.51,3.29,2.24,.2,.13,.51,.19,.75,.14,1.28-.23,2.55-.5,3.82-.78,.41-.09,.65,0,.88,.37,.67,1.09,1.38,2.16,2.11,3.22,.15,.22,.43,.43,.69,.48,1.23,.26,2.47,.49,3.71,.68,.48,.07,.69,.28,.77,.75,.2,1.22,.42,2.44,.68,3.65,.06,.29,.28,.63,.52,.8,1.01,.71,2.05,1.4,3.11,2.04,.45,.27,.55,.55,.44,1.03-.28,1.23-.54,2.46-.76,3.7-.05,.26,.01,.59,.15,.81,.71,1.1,1.44,2.17,2.2,3.24,.22,.31,.22,.53,0,.84-.75,1.06-1.49,2.14-2.2,3.24-.14,.22-.2,.55-.15,.81,.22,1.24,.48,2.47,.76,3.7,.11,.48,0,.76-.44,1.03-1.06,.64-2.1,1.32-3.11,2.04-.24,.17-.46,.5-.52,.8-.26,1.21-.48,2.43-.68,3.65-.08,.46-.29,.68-.77,.75-1.24,.19-2.48,.42-3.71,.68-.26,.05-.54,.26-.69,.48-.73,1.06-1.43,2.13-2.11,3.22-.23,.38-.47,.46-.88,.37-1.27-.28-2.54-.55-3.82-.78-.24-.04-.55,.01-.75,.15-1.11,.72-2.2,1.47-3.29,2.24-.29,.21-.5,.2-.79,0-1.05-.74-2.1-1.47-3.18-2.16-.25-.16-.63-.24-.92-.19-1.22,.21-2.43,.46-3.64,.74-.5,.11-.8,0-1.08-.46-.62-1.05-1.3-2.07-2-3.06-.18-.26-.54-.48-.85-.55-1.21-.27-2.43-.49-3.65-.68-.47-.07-.63-.31-.7-.73-.21-1.22-.41-2.44-.68-3.65-.07-.31-.31-.65-.57-.84-.99-.7-2.01-1.37-3.06-2-.45-.27-.55-.55-.44-1.03,.28-1.23,.54-2.46,.76-3.7,.05-.26-.01-.59-.15-.81-.71-1.1-1.44-2.17-2.2-3.24-.22-.31-.22-.53,0-.84,.75-1.06,1.49-2.14,2.2-3.24,.14-.22,.2-.55,.15-.81-.22-1.22-.47-2.43-.74-3.64-.11-.49-.07-.81,.42-1.1,1.07-.63,2.1-1.32,3.11-2.03,.23-.16,.45-.47,.51-.74,.26-1.21,.48-2.43,.68-3.65,.08-.48,.26-.73,.78-.81,1.22-.18,2.44-.41,3.65-.67,.28-.06,.59-.26,.75-.49,.74-1.07,1.43-2.18,2.16-3.26,.12-.18,.31-.31,.41-.39Zm25.91,21.24c0-9.52-7.68-17.21-17.2-17.23-9.54-.02-17.26,7.68-17.26,17.23,0,9.52,7.68,17.21,17.2,17.23,9.54,.02,17.26-7.68,17.26-17.23Z"/><path class="c" d="M48.57,30.75c0,9.54-7.72,17.25-17.26,17.23-9.52-.02-17.2-7.71-17.2-17.23,0-9.54,7.71-17.24,17.26-17.23,9.52,.02,17.2,7.71,17.2,17.23Zm-17.24,14.39c7.99,0,14.39-6.38,14.4-14.36,0-8-6.37-14.41-14.34-14.41-8.01,0-14.42,6.36-14.43,14.32,0,8.04,6.37,14.44,14.37,14.44Z"/><path class="b" d="M31.33,45.13c-8,0-14.38-6.41-14.37-14.44,0-7.96,6.42-14.33,14.43-14.32,7.97,0,14.34,6.41,14.34,14.41,0,7.97-6.41,14.36-14.4,14.36Zm10.13-18.68l-3.13-2.92c-3.13,3.33-6.22,6.64-9.35,9.97-1.65-1.47-3.26-2.9-4.9-4.35l-2.85,3.19c2.7,2.4,5.34,4.75,8.02,7.13,4.06-4.33,8.11-8.65,12.2-13.02Z"/><path class="c" d="M41.46,26.46c-4.09,4.36-8.14,8.68-12.2,13.02-2.68-2.38-5.32-4.73-8.02-7.13l2.85-3.19c1.64,1.46,3.25,2.89,4.9,4.35,3.12-3.33,6.22-6.64,9.35-9.97l3.13,2.92Z"/></g></svg>