<?xml version="1.0" encoding="UTF-8"?><svg id="a" xmlns="http://www.w3.org/2000/svg" viewBox="0 0 473.48 473.48"><defs><style>.b{fill:#fff;}</style></defs><circle cx="236.74" cy="236.74" r="236.74"/><g><path class="b" d="M174.63,367.64c-1.5-1.07-2.27-1.68-3.1-2.2-28.93-17.9-46.29-43.63-51.91-77.16-.91-5.42-1.04-11.01-1.09-16.52-.14-16.59-.06-33.19-.04-49.79,0-6.51,2.11-8.58,8.6-8.58,66.75,0,133.5,0,200.26,0,6.18,0,8.47,2.23,8.56,8.37,.05,3.53,0,7.06,0,11.09,5.62-1.47,10.65-2.9,15.74-4.1,17.91-4.25,34.99,8.6,35.48,27,.31,11.62,1.12,23.33-2.46,34.73-8.01,25.51-31.03,42.57-58.63,42.55-6.36,0-10.44,1.57-14.28,6.84-8.26,11.34-19.18,19.96-31.29,27.77m44.33-47.73c.92,.12,1.4,.23,1.88,.23,19.45,0,37.26-12.33,44.33-30.36,4.23-10.78,3.37-21.99,3.09-33.1-.28-11.24-9.79-17.89-20.7-15.01-4.85,1.28-9.63,2.86-14.51,3.99-2.47,.57-3.06,1.76-3.02,4.08,.12,6.75,.04,13.51,.04,20.27,0,15.13-2.55,29.77-8.5,43.74-.85,1.99-1.68,3.98-2.61,6.16Z"/><path class="b" d="M163.17,101.14c5.9,.86,8.36,5.86,6.18,10.95-1.85,4.33-3.66,8.87-4.27,13.48-1.18,8.83,1.71,16.55,7.87,23.22,12.65,13.69,14.55,35.26,4.85,50.91-1.64,2.64-3.77,4.31-6.91,3.9-2.95-.39-5.15-2.27-5.46-5.19-.2-1.89,.52-4.11,1.46-5.85,4.18-7.75,5.36-15.92,2.47-24.15-1.49-4.26-4.08-8.42-7.07-11.83-12.15-13.84-14.29-35.07-4.46-50.65,1.23-1.94,3.53-3.21,5.34-4.79Z"/><path class="b" d="M243.31,176.63c-.11,8.78-2.01,16.18-6.08,22.96-2.36,3.94-5.96,5.12-9.28,3.23-3.46-1.97-4.21-5.76-1.96-9.92,6.9-12.78,5.4-25.67-4.25-36.34-12.3-13.6-14.35-34.71-4.87-50.33,2.56-4.23,5.98-5.49,9.5-3.5,3.43,1.93,4.18,5.74,1.94,9.89-6.99,12.97-5.45,25.73,4.44,36.61,7.29,8.03,10.32,17.63,10.57,27.4Z"/><path class="b" d="M282.11,101.2c5.91,.88,8.51,6.14,5.59,11.23-4.39,7.66-5.64,15.85-2.94,24.1,1.47,4.5,4.23,8.86,7.35,12.48,11.98,13.9,13.99,35.32,4.36,50.78-1.57,2.52-3.77,4.51-6.54,3.71-2.16-.63-4.37-2.59-5.53-4.57-.75-1.27-.17-3.96,.74-5.46,7.01-11.57,5.29-27.6-4.75-37.97-12.13-12.54-13.41-35.36-3.64-49.98,1.21-1.82,3.54-2.89,5.35-4.31Z"/></g></svg>