<?xml version="1.0" encoding="UTF-8"?><svg id="a" xmlns="http://www.w3.org/2000/svg" viewBox="0 0 62.7 62.7"><defs><style>.b{fill:#fff;}.c{fill:#1d1d1b;}</style></defs><circle cx="31.35" cy="31.35" r="31.35"/><g><path class="b" d="M47.14,15.9c-.13,7.13-1.23,13.88-5.8,19.52-3.14,3.87-7.34,6.28-12.01,7.89-.21,.07-.58-.04-.74-.21-2.88-2.86-5.75-5.74-8.59-8.64-.18-.18-.26-.64-.18-.89,3.04-8.71,8.66-14.65,17.86-16.72,2.81-.63,5.66-1.01,8.54-1,.26,0,.52,.02,.91,.04Zm-13.9,9.74c-2.32-.01-4.2,1.83-4.21,4.13-.02,2.36,1.84,4.26,4.18,4.26,2.3,0,4.16-1.86,4.17-4.18,0-2.34-1.82-4.2-4.13-4.21Z"/><path class="b" d="M41.63,37.41c.16,1.64,.33,3.26,.46,4.88,.02,.23-.06,.55-.21,.71-1.83,1.87-3.68,3.71-5.53,5.56-.03,.03-.1,.03-.23,.06-.39-1.95-.79-3.89-1.15-5.84-.03-.19,.14-.52,.31-.62,2.23-1.32,4.31-2.84,6.12-4.71,.04-.04,.14-.03,.22-.04Z"/><path class="b" d="M14.31,26.85c1.05-1.04,1.98-1.96,2.9-2.88,.53-.53,1.13-1.01,1.57-1.6,.92-1.24,2.04-1.68,3.56-1.37,1.08,.22,2.2,.25,3.39,.37-.75,.86-1.51,1.61-2.13,2.46-.91,1.22-1.74,2.5-2.57,3.78-.24,.37-.44,.53-.88,.44-1.87-.4-3.75-.77-5.84-1.19Z"/><path class="b" d="M20.23,38.73l-4.76,4.78-1.75-1.92,4.68-4.66,1.83,1.81Z"/><path class="b" d="M26.11,44.73l-4.73,4.79-1.82-1.83,4.78-4.8,1.77,1.84Z"/><path class="b" d="M16.01,48.92l-1.8-1.8c1.58-1.59,3.15-3.17,4.67-4.71l1.77,1.84c-1.45,1.46-3.02,3.04-4.64,4.67Z"/><path class="c" d="M33.24,25.64c2.31,.01,4.13,1.87,4.13,4.21,0,2.32-1.86,4.18-4.17,4.18-2.33,0-4.19-1.9-4.18-4.26,.02-2.3,1.89-4.14,4.21-4.13Z"/></g></svg>