<?xml version="1.0" encoding="UTF-8"?><svg id="a" xmlns="http://www.w3.org/2000/svg" viewBox="0 0 62.7 62.7"><defs><style>.b{fill:#fff;}</style></defs><circle cx="31.35" cy="31.35" r="31.35"/><g><path class="b" d="M32.96,12.15c-2.57,12.51-5.13,24.97-7.7,37.49l4.4,.91c2.57-12.5,5.12-24.96,7.69-37.48l-4.4-.91Zm22.52,19.24l-12.86-11.4-2.97,3.37,9.09,8.04-9.09,8.04,2.97,3.37c4.29-3.81,8.55-7.58,12.86-11.4Zm-48.27,0c4.31,3.83,8.57,7.6,12.86,11.4l2.97-3.37-9.09-8.04,9.09-8.04-2.97-3.37c-4.29,3.81-8.55,7.58-12.86,11.4Z"/><path class="b" d="M32.96,12.15l4.4,.91c-2.57,12.52-5.13,24.98-7.69,37.48l-4.4-.91c2.57-12.52,5.13-24.98,7.7-37.49Z"/><path class="b" d="M55.48,31.39c-4.31,3.82-8.57,7.6-12.86,11.4l-2.97-3.37,9.09-8.04-9.09-8.04,2.97-3.37,12.86,11.4Z"/><path class="b" d="M7.21,31.39c4.31-3.82,8.57-7.6,12.86-11.4l2.97,3.37-9.09,8.04,9.09,8.04-2.97,3.37c-4.29-3.8-8.54-7.58-12.86-11.4Z"/></g></svg>