<?xml version="1.0" encoding="UTF-8"?><svg id="a" xmlns="http://www.w3.org/2000/svg" viewBox="0 0 12.33 437.22"><defs><style>.b{fill:#1d1d1b;}.c{fill:#fff;stroke:#1d1d1b;stroke-miterlimit:10;}</style></defs><g><circle class="b" cx="6.17" cy="8.65" r="1.56"/><circle class="b" cx="6.17" cy="15.65" r="1.56"/><circle class="b" cx="6.17" cy="22.65" r="1.56"/><circle class="b" cx="6.17" cy="29.65" r="1.56"/><circle class="b" cx="6.17" cy="36.65" r="1.56"/><circle class="b" cx="6.17" cy="43.65" r="1.56"/><circle class="b" cx="6.17" cy="50.65" r="1.56"/><circle class="b" cx="6.17" cy="57.65" r="1.56"/><circle class="b" cx="6.17" cy="64.65" r="1.56"/><circle class="b" cx="6.17" cy="71.65" r="1.56"/><circle class="b" cx="6.17" cy="78.65" r="1.56"/><circle class="b" cx="6.17" cy="85.65" r="1.56"/><circle class="b" cx="6.17" cy="92.65" r="1.56"/><circle class="b" cx="6.17" cy="99.65" r="1.56"/><circle class="b" cx="6.17" cy="106.65" r="1.56"/><circle class="b" cx="6.17" cy="113.65" r="1.56"/><circle class="b" cx="6.17" cy="120.65" r="1.56"/><circle class="b" cx="6.17" cy="127.65" r="1.56"/><circle class="b" cx="6.17" cy="134.65" r="1.56"/><circle class="b" cx="6.17" cy="141.65" r="1.56"/><circle class="b" cx="6.17" cy="148.65" r="1.56"/><circle class="b" cx="6.17" cy="155.65" r="1.56"/><circle class="b" cx="6.17" cy="162.65" r="1.56"/><circle class="b" cx="6.17" cy="169.65" r="1.56"/><circle class="b" cx="6.17" cy="176.65" r="1.56"/><circle class="b" cx="6.17" cy="183.65" r="1.56"/><circle class="b" cx="6.17" cy="190.65" r="1.56"/><circle class="b" cx="6.17" cy="197.65" r="1.56"/><circle class="b" cx="6.17" cy="204.65" r="1.56"/><circle class="b" cx="6.17" cy="211.65" r="1.56"/><circle class="b" cx="6.17" cy="218.65" r="1.56"/><circle class="b" cx="6.17" cy="225.65" r="1.56"/><circle class="b" cx="6.17" cy="232.65" r="1.56"/><circle class="b" cx="6.17" cy="239.65" r="1.56"/><circle class="b" cx="6.17" cy="246.65" r="1.56"/><circle class="b" cx="6.17" cy="253.65" r="1.56"/><circle class="b" cx="6.17" cy="260.65" r="1.56"/><circle class="b" cx="6.17" cy="267.65" r="1.56"/><circle class="b" cx="6.17" cy="274.65" r="1.56"/><circle class="b" cx="6.17" cy="281.65" r="1.56"/><circle class="b" cx="6.17" cy="288.65" r="1.56"/><circle class="b" cx="6.17" cy="295.65" r="1.56"/><circle class="b" cx="6.17" cy="302.65" r="1.56"/><circle class="b" cx="6.17" cy="309.65" r="1.56"/><circle class="b" cx="6.17" cy="316.65" r="1.56"/><circle class="b" cx="6.17" cy="323.65" r="1.56"/><circle class="b" cx="6.17" cy="330.65" r="1.56"/><circle class="b" cx="6.17" cy="337.65" r="1.56"/><circle class="b" cx="6.17" cy="344.65" r="1.56"/><circle class="b" cx="6.17" cy="351.65" r="1.56"/><circle class="b" cx="6.17" cy="358.65" r="1.56"/><circle class="b" cx="6.17" cy="365.65" r="1.56"/><circle class="b" cx="6.17" cy="372.65" r="1.56"/><circle class="b" cx="6.17" cy="379.65" r="1.56"/><circle class="b" cx="6.17" cy="386.65" r="1.56"/><circle class="b" cx="6.17" cy="393.65" r="1.56"/><circle class="b" cx="6.17" cy="400.65" r="1.56"/><circle class="b" cx="6.17" cy="407.65" r="1.56"/><circle class="b" cx="6.17" cy="414.65" r="1.56"/><circle class="b" cx="6.17" cy="421.65" r="1.56"/><circle class="b" cx="6.17" cy="428.65" r="1.56"/><circle class="b" cx="6.17" cy="435.65" r="1.56"/></g><circle class="c" cx="6.17" cy="6.17" r="5.67"/></svg>